<svg width="501" height="101" xmlns="http://www.w3.org/2000/svg" xmlns:xlink="http://www.w3.org/1999/xlink" xml:space="preserve" overflow="hidden"><g transform="translate(-389 -309)"><g><g><g><g><path d="M865.007 684.564C864.33 684.469 863.096 684.074 862.12 683.622 860.766 683.019 860.13 682.567 858.836 681.324 856.307 678.894 855.133 676.313 854.456 671.811 854.038 669.042 854.138 662.939 854.635 659.718 854.914 657.929 856.029 652.881 856.268 652.278 856.327 652.127 856.188 651.977 855.909 651.901 853.759 651.28 848.205 648.925 846.254 647.814 844.702 646.929 844.343 645.742 845.319 644.668 846.195 643.67 846.832 643.708 849.32 644.894 851.729 646.043 856.745 648.04 857.183 648.04 857.382 648.04 857.681 647.531 858.019 646.589 859.512 642.483 859.99 641.692 861.125 641.523 862.08 641.372 863.155 642.069 863.394 642.954 863.534 643.5 863.394 644.065 862.638 646.269 862.14 647.72 861.722 649.019 861.722 649.132 861.722 649.245 862.06 649.434 862.479 649.528 862.877 649.641 864.111 649.942 865.206 650.225 866.301 650.507 867.435 650.847 867.714 650.978 868.192 651.204 868.331 651.186 869.008 650.733 869.446 650.47 870.123 650.112 870.541 649.942L871.277 649.641 869.964 647.569C869.247 646.439 868.311 645.007 867.873 644.423 867.455 643.821 866.739 642.596 866.321 641.692 865.903 640.769 864.668 638.264 863.613 636.079 861.443 631.671 859.851 627.942 858.418 624.061L857.462 621.443 856.885 621.556C856.566 621.613 855.929 621.82 855.471 622.027 854.655 622.366 854.615 622.422 854.496 623.327 854.317 624.834 853.62 626.096 852.485 627.094 850.574 628.733 848.066 629.128 845.597 628.186 844.901 627.923 844.303 627.697 844.284 627.697 844.025 627.697 841.417 630.899 840.899 631.878 840.302 633.009 840.222 633.31 840.222 634.628 840.222 636.343 840.521 637.303 841.536 638.867 842.532 640.392 842.631 641.221 841.895 641.993 841.516 642.37 841.059 642.634 840.601 642.69 839.944 642.803 839.765 642.728 838.968 642.031 837.893 641.089 836.56 638.772 836.142 637.096 835.166 633.14 836.619 629.43 840.601 625.719L842.014 624.419 842.014 622.724C842.014 621.424 842.114 620.859 842.412 620.275 843.049 619.032 843.885 618.203 845.199 617.544 847.369 616.433 849.818 616.564 851.908 617.902L853.043 618.618 854.635 618.071C855.491 617.77 856.228 617.506 856.268 617.469 856.307 617.431 856.248 617.111 856.148 616.753 855.591 614.888 854.735 610.292 854.436 607.73 854.058 604.321 854.138 598.953 854.615 596.504 855.352 592.812 856.686 590.269 859.035 588.046 861.583 585.635 863.912 584.75 867.654 584.75 871.058 584.75 873.626 585.39 877.548 587.199 880.196 588.442 883.222 590.231 885.849 592.171 887.681 593.509 892.319 597.54 895.166 600.271L896.858 601.891 898.371 601.891 899.884 601.891 902.094 599.122C905.219 595.166 905.199 595.166 907.07 594.997 907.906 594.922 909.877 594.922 911.43 594.978 914.376 595.11 915.252 595.317 915.59 595.995 915.67 596.184 915.81 600.459 915.869 605.508 915.929 611.234 916.048 614.756 916.168 614.869 916.287 614.963 917.521 615.321 918.955 615.641 921.244 616.15 921.563 616.188 921.762 615.924 922.04 615.566 923.175 610.198 923.414 608.013 923.951 603.285 923.852 599.047 923.115 596.052 922.399 593.113 920.448 590.514 918.159 589.44 917.143 588.969 916.546 588.837 915.232 588.762 911.51 588.536 907.429 589.949 901.755 593.396 899.605 594.696 898.769 594.865 897.853 594.112 897.177 593.565 896.958 592.303 897.435 591.644 898.192 590.552 904.204 587.217 907.528 586.05 917.8 582.471 925.504 586.445 927.555 596.447 928.072 598.953 928.072 605.884 927.555 609.331 927.236 611.403 926.241 616.207 925.922 617.148 925.843 617.374 926.121 617.563 926.957 617.845 934.403 620.464 940.355 623.93 943.182 627.301 945.232 629.731 946.327 632.349 946.327 634.798 946.327 636.267 945.71 638.546 944.894 639.997 943.978 641.636 940.016 645.384 937.707 646.816 935.617 648.096 930.72 650.357 927.853 651.355 926.738 651.751 925.843 652.165 925.882 652.259 925.942 652.372 926.241 653.653 926.579 655.104 928.988 665.445 928.411 674.543 925.026 679.421 924.588 680.062 923.633 681.117 922.896 681.757 917.442 686.598 908.862 685.543 898.451 678.762 896.719 677.651 893.673 675.353 892.08 673.996L891.085 673.13 889.691 674.298C885.451 677.858 881.968 680.099 877.548 682.19 872.87 684.394 869.028 685.11 865.007 684.564ZM869.366 680.627C874.144 679.986 880.295 676.728 886.885 671.34L887.641 670.7 884.297 670.587C882.465 670.512 878.743 670.455 876.035 670.455L871.098 670.455 869.924 669.796C868.51 669.024 867.694 668.176 866.898 666.688L866.301 665.577 866.301 660.057 866.301 654.538 863.414 653.898C861.822 653.559 860.488 653.295 860.448 653.333 860.388 653.371 860.209 653.954 860.03 654.633 859.413 656.912 858.736 661.112 858.497 664.277 857.721 674.731 860.826 680.514 867.336 680.796 867.634 680.796 868.53 680.721 869.366 680.627ZM916.128 680.627C920.209 680.005 922.737 676.784 923.533 671.209 923.693 670.116 923.832 668.515 923.832 667.63 923.832 662.921 922.319 653.314 921.563 653.314 921.443 653.314 920.428 653.521 919.293 653.785 918.159 654.049 916.924 654.256 916.546 654.256L915.869 654.256 915.869 659.907 915.869 665.577 915.272 666.688C914.476 668.176 913.659 669.024 912.246 669.796L911.072 670.455 905.955 670.455C903.149 670.455 899.426 670.512 897.714 670.587L894.589 670.7 895.524 671.491C902.133 677.104 909.18 680.589 914.376 680.796 914.715 680.796 915.491 680.74 916.128 680.627ZM883.898 666.349C883.958 666.255 883.281 665.369 882.386 664.352 881.211 662.996 880.693 662.563 880.455 662.638 880.275 662.713 879.658 662.864 879.081 662.977 876.374 663.523 872.79 661.451 872.054 658.909 871.735 657.816 871.934 655.273 872.372 654.407 872.571 654.011 872.691 653.653 872.631 653.578 872.432 653.408 871.297 654.049 871.039 654.501 870.76 654.972 870.541 663.09 870.78 664.541 870.959 665.708 871.437 666.16 872.591 666.33 874.025 666.518 883.779 666.518 883.898 666.349ZM893.434 665.143C895.285 663.297 897.933 660.171 898.172 659.549 898.291 659.285 898.849 658.588 899.426 658.023 900.023 657.458 901.058 656.271 901.715 655.386L902.95 653.785 898.61 653.672C892.677 653.502 885.073 653.484 884.177 653.615L883.461 653.729 883.859 654.614C884.396 655.8 884.536 657.684 884.137 658.852L883.839 659.775 885.889 662.054C887.024 663.316 888.417 664.823 889.015 665.426 890.05 666.443 890.149 666.5 891.085 666.5 892.06 666.5 892.1 666.481 893.434 665.143ZM910.912 665.746 911.49 665.106 911.49 660.472C911.49 657.929 911.39 655.518 911.291 655.104 911.072 654.218 910.554 653.747 909.559 653.578 908.444 653.371 908.862 652.937 904.084 659.078 902.81 660.736 900.959 662.996 899.963 664.126 898.988 665.256 898.232 666.273 898.291 666.368 898.351 666.462 900.999 666.5 904.363 666.462L910.335 666.405ZM879.181 658.664C879.798 658.306 880.295 657.326 880.156 656.799 880.096 656.554 879.798 656.102 879.519 655.782 879.081 655.292 878.862 655.198 878.106 655.198 875.836 655.198 875.239 658.023 877.349 658.89 877.986 659.153 878.464 659.097 879.181 658.664ZM914.734 651.43C914.874 650.941 916.088 650.432 918.437 649.848 919.452 649.603 920.328 649.358 920.388 649.283 920.468 649.208 920.109 647.946 919.592 646.439 919.074 644.951 918.656 643.463 918.656 643.161 918.656 642.408 919.811 641.447 920.707 641.447 922.04 641.447 922.657 642.314 923.912 645.93 924.429 647.381 924.748 648.04 924.967 648.04 926.022 648.04 933.109 644.857 935.657 643.237 937.608 641.993 940.414 639.319 941.191 637.962 942.306 635.966 942.306 633.8 941.191 631.69 940.454 630.296 937.986 627.828 935.836 626.397 932.989 624.476 925.305 621.142 924.827 621.594 924.648 621.763 923.593 624.419 922.319 627.81 922.16 628.243 921.682 629.392 921.264 630.353L920.488 632.123 921.065 632.726C922.339 634.101 922.578 636.87 921.583 638.716 920.587 640.581 919.134 641.598 916.904 642.012 915.809 642.219 915.61 642.333 915.332 642.841 915.152 643.161 914.655 643.934 914.197 644.555 913.759 645.177 912.843 646.571 912.147 647.644L910.912 649.603 911.848 650.018C912.365 650.263 913.142 650.752 913.58 651.11 914.516 651.901 914.595 651.939 914.734 651.43ZM906.154 646.119 906.214 642.86 907.906 642.747C909.897 642.615 910.335 642.445 910.992 641.447L911.49 640.694 910.813 639.714C909.041 637.077 909.101 635.25 911.032 632.18 911.529 631.37 911.549 631.276 911.291 630.805 910.853 630.051 910.017 629.731 908.026 629.599L906.214 629.486 906.154 624.193 906.115 618.9 908.125 618.787C909.937 618.693 910.773 618.486 910.454 618.184 910.295 618.034 905.119 617.412 901.735 617.111 897.913 616.79 884.257 616.79 880.435 617.111 877.05 617.412 871.875 618.034 871.715 618.184 871.397 618.486 872.233 618.693 874.044 618.787L876.055 618.9 876.015 624.193 875.956 629.486 874.144 629.599C871.895 629.75 871.178 630.07 870.899 631.049 870.78 631.445 870.68 633.668 870.68 636.135 870.68 640.166 870.72 640.581 871.078 641.259 871.676 642.351 872.233 642.615 874.224 642.747L875.956 642.86 876.015 645.874C876.035 647.531 876.095 649.001 876.155 649.132 876.214 649.302 879.419 649.358 891.165 649.358L906.115 649.358ZM917.283 637.51C917.74 637.077 917.86 636.795 917.86 636.173 917.86 635.118 917.621 634.76 916.665 634.402 915.969 634.139 915.77 634.139 915.192 634.365 913.082 635.194 913.62 638.057 915.869 638.057 916.526 638.057 916.825 637.944 917.283 637.51ZM866.5 630.842C866.5 629.26 868.271 627.15 870.421 626.19L871.676 625.625 871.676 624.212C871.676 622.837 871.656 622.78 871.138 622.592 869.605 622.083 867.913 620.803 867.177 619.597 866.739 618.9 866.599 618.9 863.912 619.578 862.538 619.917 861.802 620.181 861.762 620.369 861.662 620.84 864.23 627.565 865.644 630.56 866.181 631.709 866.5 631.822 866.5 630.842ZM916.725 629.806C916.904 629.618 917.302 628.883 917.621 628.149 918.656 625.794 920.507 620.558 920.388 620.313 920.308 620.087 916.407 619.032 915.67 619.032 915.511 619.032 915.152 619.371 914.874 619.785 914.257 620.746 912.585 622.046 911.45 622.441L910.594 622.762 910.534 624.193 910.474 625.625 911.748 626.19C913.221 626.849 914.516 627.979 915.192 629.26 915.71 630.221 916.168 630.39 916.725 629.806ZM849.738 624.005C850.037 623.666 850.176 623.289 850.176 622.743 850.176 621.744 849.778 621.198 848.882 620.916 847.747 620.558 846.772 621.029 846.254 622.197 845.458 624.005 848.305 625.512 849.738 624.005ZM862.339 615.849C863.155 615.641 864.33 615.397 864.967 615.265 865.584 615.152 866.122 615.039 866.141 615.02 866.161 615.001 866.221 610.782 866.301 605.658 866.36 600.535 866.48 596.184 866.579 595.995 866.679 595.807 867.037 595.524 867.376 595.336 867.913 595.053 868.59 595.016 872.213 595.016L876.433 595.034 877.07 595.581C877.409 595.901 878.723 597.445 879.997 599.047L882.306 601.929 886.228 601.872C888.397 601.834 890.229 601.721 890.328 601.646 890.528 601.458 887.661 598.802 884.814 596.541 882.326 594.564 878.384 592.077 876.055 590.966 871.377 588.743 866.977 588.14 864.21 589.346 859.871 591.23 857.94 596.504 858.517 605.018 858.875 610.141 860.05 616.206 860.687 616.206 860.766 616.206 861.523 616.037 862.339 615.849ZM911.49 610.085 911.49 605.847 891.085 605.847 870.68 605.847 870.68 609.991C870.68 613.984 870.7 614.135 871.078 614.135 871.297 614.135 872.392 614.003 873.507 613.852 878.563 613.155 881.53 612.967 888.397 612.872 894.728 612.778 903.288 613.023 904.383 613.306 904.681 613.4 904.721 613.268 904.721 612.364 904.721 611.479 904.801 611.29 905.259 610.951 906.274 610.179 907.369 610.217 908.225 611.027 908.742 611.516 908.862 612.552 908.484 613.23 908.364 613.438 908.305 613.645 908.364 613.682 908.424 613.739 909.121 613.89 909.917 614.021 910.733 614.172 911.41 614.285 911.45 614.304 911.47 614.323 911.49 612.42 911.49 610.085ZM876.553 601.665C876.613 601.608 876.254 600.987 875.737 600.309L874.781 599.065 872.731 599.065 870.68 599.065 870.68 600.497 870.68 601.929 873.547 601.853C875.139 601.816 876.473 601.74 876.553 601.665ZM911.49 600.497 911.49 599.084 909.479 599.028 907.468 598.971 906.473 600.29 905.498 601.608 906.154 601.721C906.513 601.797 907.867 601.853 909.161 601.872L911.49 601.891 911.49 600.497Z" fill="#FFFFFF" fill-rule="nonzero" fill-opacity="1" transform="matrix(1 0 0 -1 -435.111 994.75)"/><path d="M890.786 661.734C890.508 661.602 890.129 661.188 889.93 660.792 889.612 660.208 889.592 660.001 889.791 659.436 890.309 657.948 891.941 657.571 893.096 658.664 894.21 659.718 893.991 661.188 892.677 661.715 891.841 662.035 891.443 662.035 890.786 661.734Z" fill="#FFFFFF" fill-rule="nonzero" fill-opacity="1" transform="matrix(1 0 0 -1 -435.111 994.75)"/><path d="M889.672 648.548C888.895 647.889 888.776 647.362 889.054 646.232L889.214 645.629 887.78 645.327C886.984 645.158 885.491 644.631 884.436 644.16 882.684 643.368 882.505 643.331 882.326 643.651 881.928 644.31 881.012 644.988 880.355 645.101 878.922 645.365 877.449 644.235 877.449 642.898 877.449 642.182 878.265 641.202 879.041 640.976 879.579 640.826 879.559 640.694 878.743 639.432 878.364 638.829 877.807 637.718 877.508 636.926 877.23 636.154 876.951 635.476 876.931 635.438 876.891 635.401 876.433 635.495 875.896 635.608 874.701 635.909 873.985 635.759 873.248 635.043 872.79 634.61 872.671 634.346 872.671 633.668 872.671 632.933 872.77 632.745 873.368 632.236 873.965 631.747 874.244 631.652 875.119 631.652 875.697 631.652 876.294 631.747 876.453 631.841 876.692 631.991 876.812 631.784 877.09 630.673 877.488 629.166 878.603 626.868 879.34 626.02L879.857 625.455 879.141 625.135C878.125 624.683 877.648 624.024 877.648 623.082 877.648 621.273 879.599 620.464 881.569 621.443 881.768 621.556 882.127 621.933 882.326 622.291L882.704 622.95 883.699 622.422C884.516 621.989 886.267 621.424 889.134 620.614 889.313 620.577 889.333 620.426 889.194 620.068 888.557 618.505 889.413 617.167 891.105 617.017 892.419 616.885 893.295 617.299 893.713 618.222 893.971 618.825 893.971 618.994 893.713 619.729 893.414 620.558 893.434 620.558 893.912 620.746 894.17 620.84 894.489 620.916 894.589 620.916 895.026 620.916 897.356 621.744 898.729 622.385 899.784 622.893 900.222 623.006 900.282 622.837 900.501 622.253 901.417 621.481 902.113 621.292 902.85 621.104 903.646 621.217 904.482 621.65 905 621.914 905.398 623.006 905.219 623.741 905.08 624.325 903.905 625.436 903.427 625.436 902.989 625.436 903.049 625.644 903.825 626.868 904.542 627.979 905.259 629.618 905.458 630.56 905.557 631.068 905.617 631.087 906.294 630.955 908.026 630.616 909.061 630.974 909.638 632.123 910.076 632.971 909.817 634.007 909.041 634.553 908.623 634.854 908.165 634.949 907.15 634.949L905.816 634.967 905.219 636.569C904.661 638 904.204 638.923 903.308 640.298 903.049 640.694 903.069 640.75 903.407 640.957 904.343 641.504 904.721 641.899 904.94 642.559 905.219 643.463 904.92 644.16 903.945 644.781 902.79 645.516 901.516 645.252 900.461 644.065L899.943 643.481 898.291 644.141C896.659 644.8 895.982 645.026 894.429 645.403L893.593 645.61 893.713 646.533C893.932 648.266 893.115 649.17 891.284 649.17 890.547 649.17 890.249 649.057 889.672 648.548ZM889.492 640.034C889.492 638.076 889.472 637.962 889.074 637.906 888.796 637.868 888.079 638.302 886.944 639.206 885.989 639.94 885.212 640.637 885.212 640.713 885.212 641.089 888.318 642.219 889.094 642.144 889.472 642.106 889.492 641.975 889.492 640.034ZM895.922 641.447C896.599 641.146 897.157 640.788 897.157 640.656 897.157 640.298 894.768 638.113 894.131 637.887 893.832 637.774 893.553 637.755 893.494 637.831 893.454 637.906 893.354 638.923 893.275 640.11L893.115 642.257 893.892 642.125C894.33 642.05 895.226 641.749 895.922 641.447ZM900.839 637.284C901.138 636.644 901.437 635.796 901.476 635.401 901.576 634.741 901.536 634.666 901.038 634.553 900.302 634.384 896.938 634.61 896.679 634.854 896.539 634.986 897.057 635.608 898.251 636.738 899.227 637.68 900.083 638.433 900.163 638.433 900.222 638.433 900.541 637.906 900.839 637.284ZM883.64 637.699C884.973 636.851 886.327 635.457 886.068 635.212 885.71 634.873 884.416 634.666 882.565 634.666L880.793 634.666 880.952 635.269C881.191 636.38 882.246 638.245 882.605 638.245 882.684 638.245 883.142 638 883.64 637.699ZM892.797 635.307C893.733 634.854 894.17 634.158 894.17 633.103 894.17 632.274 894.091 632.104 893.394 631.445 892.817 630.899 892.458 630.71 891.961 630.692 889.472 630.616 888.417 631.332 888.397 633.103 888.397 633.931 888.497 634.195 889.015 634.76 889.97 635.796 891.403 636.003 892.797 635.307ZM885.969 631.558C886.228 631.332 885.292 630.07 884.038 628.978L882.744 627.828 882.346 628.318C881.828 628.996 881.052 630.692 881.032 631.219 881.032 631.596 881.151 631.633 882.386 631.709 883.938 631.803 885.81 631.728 885.969 631.558ZM901.476 630.974C901.337 630.164 900.023 627.885 899.685 627.885 899.545 627.885 898.729 628.563 897.873 629.373 895.703 631.445 895.803 631.577 899.526 631.633L901.596 631.652 901.476 630.974ZM889.273 628.526C889.532 628.299 889.592 627.81 889.592 626.246L889.592 624.25 888.875 624.363C887.88 624.513 885.61 625.549 885.61 625.851 885.61 626.152 888.397 628.827 888.736 628.827 888.855 628.827 889.114 628.695 889.273 628.526ZM895.285 627.716C897.077 626.529 897.654 625.945 897.316 625.681 896.858 625.323 894.688 624.532 893.971 624.457L893.275 624.4 893.215 626.529C893.155 629.072 893.215 629.109 895.285 627.716Z" fill="#FFFFFF" fill-rule="nonzero" fill-opacity="1" transform="matrix(1 0 0 -1 -435.111 994.75)"/><text fill="#FFFFFF" fill-opacity="1" font-family="STIX Two Text,STIX Two Text_MSFontService,sans-serif" font-style="normal" font-variant="normal" font-weight="700" font-stretch="normal" font-size="30" text-anchor="start" direction="ltr" writing-mode="lr-tb" unicode-bidi="normal" text-decoration="none" transform="matrix(2.64479 0 0 2.64479 523.642 382)">SQK</text><text fill="#FFFFFF" fill-opacity="1" font-family="STIX Two Text,STIX Two Text_MSFontService,sans-serif" font-style="normal" font-variant="normal" font-weight="400" font-stretch="normal" font-size="10" text-anchor="start" direction="ltr" writing-mode="lr-tb" unicode-bidi="normal" text-decoration="none" transform="matrix(2.64479 0 0 2.64479 687.619 343)">   supercomputer</text><text fill="#FFFFFF" fill-opacity="1" font-family="STIX Two Text,STIX Two Text_MSFontService,sans-serif" font-style="normal" font-variant="normal" font-weight="400" font-stretch="normal" font-size="10" text-anchor="start" direction="ltr" writing-mode="lr-tb" unicode-bidi="normal" text-decoration="none" transform="matrix(2.64479 0 0 2.64479 684.974 367)">   quantum</text><text fill="#FFFFFF" fill-opacity="1" font-family="STIX Two Text,STIX Two Text_MSFontService,sans-serif" font-style="normal" font-variant="normal" font-weight="400" font-stretch="normal" font-size="10" text-anchor="start" direction="ltr" writing-mode="lr-tb" unicode-bidi="normal" text-decoration="none" transform="matrix(2.64479 0 0 2.64479 687.619 392)">   Kokkos</text></g></g></g></g></g></svg>