<svg
   width="500.29033"
   height="100.262707"
   viewBox="170 150 0.93146 37.810165"
   preserveAspectRatio="xMidYMid"
   version="1.1"
   id="svg312"
   sodipodi:docname="svgviewer-output (2).svg"
   xmlns:inkscape="http://www.inkscape.org/namespaces/inkscape"
   xmlns:sodipodi="http://sodipodi.sourceforge.net/DTD/sodipodi-0.dtd"
   xmlns="http://www.w3.org/2000/svg"
   xmlns:svg="http://www.w3.org/2000/svg">
  <defs
     id="defs316" />
  <sodipodi:namedview
     id="namedview314"
     pagecolor="#ffffff"
     bordercolor="#000000"
     borderopacity="0.25"
     inkscape:showpageshadow="2"
     inkscape:pageopacity="0.0"
     inkscape:pagecheckerboard="0"
     inkscape:deskcolor="#d1d1d1"
     showgrid="false" />
  <g
     id="Layer_1"
     inkscape:export-filename="Layer_1.svg"
     inkscape:export-xdpi="96"
     inkscape:export-ydpi="96"
     transform="translate(-236.0357,-131.09492)">
    <title
       id="title291">Layer 1</title>
    <g
       id="g309">
      <g
         id="g307">
        <title
           fill="#0979ea"
           id="title293">Layer 1</title>
        <g
           id="svg_4"
           stroke="null">
          <g
             id="svg_5"
             stroke="null">
            <title
               fill="#0979ea"
               stroke="null"
               id="title295">Layer 1</title>
            <g
               transform="matrix(0.1,0,0,-0.1,0,540)"
               fill="#0871f2"
               id="svg_7"
               stroke="null">
              <path
                 d="m 3270.6049,2588.3461 c -2.5592,-0.3561 -7.2258,-1.8517 -10.914,-3.561 -5.1183,-2.2791 -7.5269,-3.9884 -12.4193,-8.6889 -9.5592,-9.1874 -14,-18.9446 -16.5592,-35.9663 -1.5806,-10.4694 -1.2043,-33.5448 0.6774,-45.7235 1.0538,-6.766 5.2688,-25.8531 6.1721,-28.1321 0.2258,-0.5698 -0.3011,-1.1395 -1.3549,-1.4244 -8.129,-2.3503 -29.129,-11.2529 -36.5053,-15.4549 -5.871,-3.3473 -7.2258,-7.8342 -3.5376,-11.8938 3.3118,-3.7747 5.7204,-3.6322 15.129,0.8547 9.1075,4.3444 28.0752,11.8938 29.7311,11.8938 0.7527,0 1.8818,-1.923 3.1613,-5.484 5.6452,-15.526 7.4516,-18.5173 11.742,-19.1583 3.6129,-0.5697 7.6774,2.0654 8.5806,5.4128 0.5269,2.0654 0,4.202 -2.8602,12.5348 -1.8817,5.4839 -3.4624,10.3981 -3.4624,10.8255 0,0.4273 1.2796,1.1395 2.8602,1.4956 1.5054,0.4273 6.1721,1.5669 10.3119,2.6352 4.1397,1.0683 8.4301,2.3502 9.4838,2.8488 1.8065,0.8546 2.3333,0.7834 4.8925,-0.9259 1.6559,-0.9971 4.215,-2.3503 5.7957,-2.9912 l 2.7849,-1.1396 -4.9677,-7.8342 c -2.7097,-4.2732 -6.2473,-9.686 -7.9032,-11.8938 -1.5807,-2.2791 -4.2904,-6.9084 -5.871,-10.327 -1.5806,-3.4898 -6.2473,-12.9621 -10.2366,-21.2237 -8.2043,-16.6656 -14.2258,-30.7672 -19.6451,-45.4386 l -3.6129,-9.8996 -2.1828,0.4273 c -1.2043,0.2136 -3.6129,0.9971 -5.3441,1.7805 -3.086,1.282 -3.2365,1.4956 -3.6881,4.9142 -0.6775,5.6976 -3.3119,10.4694 -7.6022,14.2441 -7.2258,6.1962 -16.7097,7.6918 -26.043,4.1308 -2.6344,-0.9971 -4.8924,-1.8518 -4.9677,-1.8518 -0.9785,0 -10.8387,12.1075 -12.7957,15.811 -2.2581,4.2732 -2.5591,5.4127 -2.5591,10.3982 0,6.481 1.129,10.1133 4.9677,16.0246 3.7634,5.7688 4.1398,8.9025 1.3548,11.8225 -1.4301,1.4245 -3.1613,2.4215 -4.8924,2.6352 -2.4839,0.4273 -3.1613,0.1424 -6.1721,-2.4927 -4.0645,-3.561 -9.1075,-12.3211 -10.6881,-18.6598 -3.6882,-14.9563 1.8064,-28.9867 16.8602,-43.0171 l 5.344,-4.9142 v -6.4099 c 0,-4.9142 0.3764,-7.0508 1.5054,-9.2586 2.4086,-4.7006 5.5699,-7.8343 10.5377,-10.327 8.2043,-4.202 17.4623,-3.7034 25.3655,1.3532 l 4.2903,2.7064 6.0215,-2.0654 c 3.2366,-1.1395 6.0215,-2.1366 6.1721,-2.279 0.1505,-0.1425 -0.075,-1.3532 -0.4516,-2.7064 -2.1076,-7.0508 -5.3441,-24.4286 -6.4731,-34.1146 -1.4301,-12.8909 -1.1291,-33.1887 0.6774,-42.4474 2.7849,-13.9592 7.8279,-23.574 16.7097,-31.978 9.6344,-9.1162 18.4408,-12.4635 32.5913,-12.4635 12.871,0 22.5807,2.4214 37.4086,9.2586 10.0107,4.7006 21.4516,11.4665 31.3871,18.8022 6.9247,5.0567 24.4623,20.2978 35.2258,30.6248 l 6.3978,6.1249 h 5.7204 5.7205 l 8.3548,-10.4694 c 11.8172,-14.9562 11.7419,-14.9562 18.8172,-15.5972 3.1613,-0.2849 10.6129,-0.2849 16.4838,-0.071 11.1398,0.4985 14.4516,1.2819 15.7312,3.8459 0.3011,0.7122 0.828,16.8792 1.0538,35.9663 0.2258,21.651 0.6774,34.9692 1.129,35.3965 0.4516,0.3561 5.1183,1.7093 10.5376,2.9201 8.6559,1.9229 9.8602,2.0654 10.6129,1.0683 1.0538,-1.3532 5.3441,-21.651 6.2473,-29.9126 2.0323,-17.8763 1.6559,-33.9009 -1.129,-45.225 -2.7097,-11.1104 -10.086,-20.9388 -18.7419,-24.9984 -3.8387,-1.7805 -6.0968,-2.279 -11.0645,-2.5639 -14.0753,-0.8546 -29.5054,4.4869 -50.957,17.5202 -8.129,4.9142 -11.2903,5.5552 -14.7527,2.7064 -2.5591,-2.0654 -3.387,-6.8371 -1.5806,-9.3299 2.8602,-4.1307 25.5914,-16.7368 38.1613,-21.1524 38.8386,-13.5319 67.9677,1.4956 75.7203,39.3137 1.957,9.4723 1.957,35.6814 0,48.7147 -1.2043,7.8343 -4.9677,25.9955 -6.172,29.5565 -0.3011,0.8547 0.7527,1.5669 3.914,2.6352 28.1505,9.8996 50.6558,23.0042 61.344,35.7526 7.7527,9.1875 11.8925,19.0871 11.8925,28.3458 0,5.5551 -2.3334,14.1728 -5.4194,19.6568 -3.4623,6.1962 -18.4408,20.369 -27.172,25.7818 -7.9032,4.843 -26.4193,13.3894 -37.258,17.1641 -4.2151,1.4956 -7.6022,3.0625 -7.4517,3.4186 0.2259,0.4273 1.3549,5.2703 2.6345,10.7543 9.1075,39.1 6.9247,73.4995 -5.871,91.9455 -1.6559,2.4215 -5.2688,6.4099 -8.0538,8.8314 -20.6236,18.3036 -53.0644,14.3153 -92.43,-11.3241 -6.5484,-4.202 -18.0645,-12.8909 -24.086,-18.0187 l -3.7634,-3.2762 -5.2689,4.4157 c -16.0322,13.4606 -29.2042,21.9359 -45.9139,29.8413 -17.6882,8.3328 -32.215,11.0392 -47.4193,8.9738 z m 16.4838,-14.8851 c 18.0645,-2.4215 41.3226,-14.7426 66.2365,-35.1116 l 2.8603,-2.4215 -12.6452,-0.4273 c -6.9247,-0.2849 -21,-0.4986 -31.2365,-0.4986 h -18.6667 l -4.4408,-2.4927 c -5.3441,-2.92 -8.4301,-6.125 -11.4409,-11.7514 l -2.2581,-4.202 v -20.8676 -20.8676 l -10.9139,-2.4215 c -6.0215,-1.2819 -11.0645,-2.279 -11.2151,-2.1366 -0.2258,0.1425 -0.9032,2.3503 -1.5806,4.9142 -2.3333,8.6177 -4.8925,24.4999 -5.7957,36.4649 -2.9355,39.5273 8.8064,61.392 33.4193,62.4603 1.1291,0 4.5162,-0.2849 7.6774,-0.641 z m 176.8064,0 c 15.4301,-2.3502 24.9892,-14.5289 27.9999,-35.6102 0.6022,-4.1308 1.1291,-10.1845 1.1291,-13.5319 0,-17.8051 -5.7205,-54.1275 -8.5807,-54.1275 -0.4516,0 -4.2903,0.7834 -8.5806,1.7805 -4.2903,0.9971 -8.957,1.7805 -10.3871,1.7805 h -2.5591 v 21.3662 21.4373 l -2.2581,4.202 c -3.0108,5.6264 -6.0968,8.8314 -11.4409,11.7514 l -4.4408,2.4927 h -19.3441 c -10.6129,0 -24.6881,0.2137 -31.1613,0.4986 l -11.8172,0.4273 3.5377,2.9912 c 24.9892,21.2237 51.6343,34.3995 71.2795,35.1829 1.2796,0 4.215,-0.2136 6.6236,-0.641 z m -121.8602,-53.985 c 0.2258,-0.3561 -2.3333,-3.7035 -5.7204,-7.5494 -4.4409,-5.1279 -6.3978,-6.766 -7.3011,-6.4811 -0.6774,0.2849 -3.0107,0.8547 -5.1935,1.282 -10.2366,2.0654 -23.7849,-5.7689 -26.5699,-15.3836 -1.2043,-4.1308 -0.4516,-13.7456 1.2043,-17.0217 0.7527,-1.4956 1.2043,-2.8488 0.9785,-3.1337 -0.7527,-0.641 -5.043,1.7805 -6.0215,3.4898 -1.0538,1.7805 -1.8817,32.4765 -0.9785,37.9605 0.6774,4.4157 2.4839,6.125 6.8495,6.7659 5.4193,0.7122 42.301,0.7122 42.7526,0.071 z m 36.0538,-4.5582 c 6.9999,-6.9796 17.0107,-18.8021 17.9139,-21.1524 0.4516,-0.9971 2.5592,-3.6323 4.742,-5.7689 2.258,-2.1366 6.172,-6.6235 8.6559,-9.9708 l 4.6666,-6.0538 -16.4086,-0.4273 c -22.43,-0.641 -51.1827,-0.7122 -54.5698,-0.2137 l -2.7097,0.4274 1.5054,3.3473 c 2.0323,4.4869 2.5591,11.609 1.0538,16.0246 l -1.1291,3.4898 7.7527,8.6177 c 4.2903,4.7718 9.5591,10.4694 11.8172,12.7485 3.914,3.8459 4.2903,4.0595 7.8279,4.0595 3.6882,0 3.8388,-0.071 8.8818,-5.1279 z m 66.0859,2.2791 2.1828,-2.4215 v -17.5202 c 0,-9.6148 -0.3763,-18.731 -0.7527,-20.2978 -0.8279,-3.3474 -2.7849,-5.1279 -6.5484,-5.7689 -4.215,-0.7834 -2.6344,-2.4215 -20.6989,20.7964 -4.8172,6.2674 -11.8172,14.8138 -15.5806,19.087 -3.6882,4.2733 -6.5484,8.1192 -6.3226,8.4753 0.2258,0.3561 10.2366,0.4985 22.957,0.3561 l 22.5806,-0.2137 z m -119.9784,-26.7789 c 2.3333,-1.3532 4.2151,-5.0566 3.6882,-7.0508 -0.2258,-0.9259 -1.3549,-2.6352 -2.4086,-3.8459 -1.6559,-1.8517 -2.4839,-2.2078 -5.3441,-2.2078 -8.5806,0 -10.8387,10.683 -2.8602,13.9592 2.4086,0.9971 4.215,0.7834 6.9247,-0.8547 z m 134.43,-27.3486 c 0.5269,-1.8518 5.1183,-3.7747 14,-5.9825 3.8387,-0.9259 7.1505,-1.8518 7.3764,-2.1367 0.301,-0.2848 -1.0538,-5.0566 -3.0108,-10.7542 -1.957,-5.6264 -3.5376,-11.2529 -3.5376,-12.3924 0,-2.8488 4.3656,-6.481 7.7527,-6.481 5.043,0 7.3763,3.2761 12.1182,16.9504 1.957,5.484 3.1613,7.9767 3.9893,7.9767 3.9892,0 30.7849,-12.0362 40.4193,-18.1612 7.3763,-4.7006 17.9892,-14.8139 20.9247,-19.9417 4.2151,-7.5494 4.2151,-15.7397 0,-23.7164 -2.7849,-5.2703 -12.1183,-14.6002 -20.2473,-20.013 -10.7634,-7.2644 -39.8172,-19.8705 -41.6236,-18.1612 -0.6774,0.641 -4.6667,10.6831 -9.4839,23.5028 -0.6021,1.638 -2.4086,5.9825 -3.9892,9.6147 l -2.9355,6.6947 2.1828,2.2791 c 4.8172,5.1991 5.7204,15.6685 1.957,22.6481 -3.7635,7.0508 -9.2581,10.8967 -17.6882,12.4636 -4.1398,0.7834 -4.8924,1.2107 -5.9462,3.1337 -0.6774,1.2107 -2.5591,4.1308 -4.2903,6.481 -1.6559,2.3503 -5.1183,7.6206 -7.7527,11.6802 l -4.6667,7.4069 3.5377,1.5669 c 1.957,0.9258 4.8924,2.7776 6.5483,4.1307 3.5377,2.9913 3.8388,3.1337 4.3656,1.2108 z m -32.4408,-20.0842 0.2258,-12.3211 6.3978,-0.4273 c 7.5269,-0.4986 9.1828,-1.1396 11.6667,-4.9142 l 1.8817,-2.8489 -2.5591,-3.7034 c -6.6989,-9.9709 -6.4731,-16.8793 0.8279,-28.4882 1.8818,-3.0625 1.957,-3.4186 0.9785,-5.1991 -1.6559,-2.8488 -4.8172,-4.0595 -12.3441,-4.5581 l -6.8494,-0.4273 -0.2258,-20.013 -0.1506,-20.0129 7.6022,-0.4273 c 6.8494,-0.3561 10.0107,-1.1395 8.8064,-2.2791 -0.6021,-0.5697 -20.172,-2.92 -32.9677,-4.0595 -14.4516,-1.2108 -66.086,-1.2108 -80.5376,0 -12.7957,1.1395 -32.3655,3.4898 -32.9677,4.0595 -1.2043,1.1396 1.957,1.923 8.8065,2.2791 l 7.6021,0.4273 -0.1505,20.0129 -0.2259,20.013 -6.8494,0.4273 c -8.5054,0.5698 -11.2151,1.7805 -12.2688,5.484 -0.4516,1.4956 -0.828,9.8996 -0.828,19.2295 0,15.2412 0.1506,16.808 1.5054,19.372 2.2581,4.1307 4.3656,5.1278 11.8925,5.6264 l 6.5483,0.4273 0.2258,11.3953 c 0.075,6.2674 0.3011,11.8225 0.5269,12.3211 0.2258,0.641 12.3441,0.8546 56.7527,0.8546 h 56.5268 z m 42.0752,-32.5477 c 1.7312,-1.6381 2.1828,-2.7064 2.1828,-5.0567 0,-3.9883 -0.9032,-5.3415 -4.5161,-6.6947 -2.6344,-0.9971 -3.3871,-0.9971 -5.5699,-0.1424 -7.9785,3.1337 -5.9462,13.9592 2.5591,13.9592 2.4839,0 3.6129,-0.4274 5.3441,-2.0654 z M 3276.25,2385.2254 c 0,-5.9825 6.6989,-13.9592 14.828,-17.5914 l 4.7419,-2.1366 v -5.3415 c 0,-5.1991 -0.075,-5.4128 -2.0323,-6.125 -5.7956,-1.923 -12.1935,-6.7659 -14.9784,-11.3241 -1.656,-2.6351 -2.1828,-2.6351 -12.3441,-0.071 -5.1936,1.282 -7.9785,2.2791 -8.1291,2.9913 -0.3763,1.7805 9.3334,27.2062 14.6775,38.5302 2.0322,4.3445 3.2365,4.7718 3.2365,1.0683 z m 189.9031,-3.9171 c 0.6774,-0.7122 2.1828,-3.4898 3.3871,-6.2674 3.914,-8.9025 10.914,-28.7018 10.4624,-29.6277 -0.3011,-0.8546 -15.0538,-4.843 -17.8387,-4.843 -0.6022,0 -1.957,1.282 -3.0108,2.8489 -2.3333,3.6322 -8.6559,8.5464 -12.9462,10.042 l -3.2366,1.2108 -0.2258,5.4127 -0.2258,5.4128 4.8172,2.1366 c 5.5699,2.4927 10.4624,6.7659 13.0215,11.6089 1.957,3.6323 3.6882,4.2733 5.7957,2.0654 z m -253.2794,-21.9359 c 1.1291,-1.2819 1.6559,-2.7063 1.6559,-4.7717 0,-3.7747 -1.5053,-5.8401 -4.8924,-6.9084 -4.2903,-1.3532 -7.9785,0.4273 -9.9355,4.843 -3.0108,6.8371 7.7527,12.5348 13.172,6.8371 z m 47.6452,-30.8384 c 3.086,-0.7834 7.5268,-1.7093 9.9354,-2.2078 2.3334,-0.4274 4.3656,-0.8547 4.4409,-0.9259 0.075,-0.071 0.3011,-16.0246 0.6022,-35.3966 0.2258,-19.3719 0.6774,-35.8238 1.0537,-36.536 0.3763,-0.7122 1.7312,-1.7806 3.0108,-2.4928 2.0322,-1.0683 4.5913,-1.2107 18.2903,-1.2107 l 15.9569,0.071 2.4086,2.0654 c 1.2796,1.2107 6.2474,7.0508 11.0646,13.1046 l 8.7311,10.8967 14.828,-0.2137 c 8.2043,-0.1424 15.129,-0.5697 15.5054,-0.8546 0.7526,-0.7122 -10.0861,-10.7543 -20.8495,-19.3008 -9.4086,-7.4781 -24.3118,-16.8792 -33.1183,-21.0812 -17.6881,-8.404 -34.3225,-10.6831 -44.7849,-6.125 -16.4086,7.1221 -23.7096,27.0638 -21.5268,59.2554 1.3548,19.372 5.7956,42.3049 8.2043,42.3049 0.301,0 3.1612,-0.6409 6.2473,-1.3531 z m 185.8385,-21.7935 v -16.0246 h -77.1505 -77.1504 v 15.6685 c 0,15.0988 0.075,15.6685 1.5054,15.6685 0.8279,0 4.9677,-0.4985 9.1827,-1.0683 19.1183,-2.6352 30.3333,-3.3474 56.3011,-3.7035 23.9354,-0.3561 56.301,0.5698 60.4408,1.6381 1.129,0.3561 1.2796,-0.1424 1.2796,-3.561 0,-3.3474 0.301,-4.0596 2.0322,-5.3415 3.8387,-2.9201 7.9785,-2.7776 11.2151,0.2848 1.957,1.8518 2.4086,5.7689 0.9785,8.3328 -0.4517,0.7834 -0.6775,1.5669 -0.4517,1.7093 0.2259,0.2137 2.8603,0.7834 5.871,1.282 3.086,0.5697 5.6452,0.9971 5.7957,1.0683 0.075,0.071 0.1505,-7.122 0.1505,-15.9534 z m -132.0967,-31.8355 c 0.2259,-0.2137 -1.129,-2.5639 -3.086,-5.1279 l -3.6129,-4.7005 h -7.7527 -7.7526 v 5.4127 5.4128 l 10.8387,-0.2849 c 6.0215,-0.1424 11.0645,-0.4273 11.3655,-0.7122 z m 132.0967,-4.4157 v -5.3415 l -7.6021,-0.2137 -7.6022,-0.2136 -3.7634,4.9854 -3.6882,4.9854 2.4839,0.4274 c 1.3548,0.2848 6.4731,0.4985 11.3656,0.5697 l 8.8064,0.071 v -5.2703 z"
                 id="svg_10"
                 fill="#0979ea"
                 stroke="null" />
              <path
                 d="m 3368.0779,2502.0269 c -1.0537,-0.4985 -2.4839,-2.0653 -3.2365,-3.561 -1.2043,-2.2078 -1.2796,-2.9912 -0.5269,-5.1278 1.957,-5.6265 8.129,-7.0509 12.4946,-2.9201 4.215,3.9884 3.3871,9.5436 -1.5807,11.5377 -3.1612,1.2108 -4.6666,1.2108 -7.1505,0.071 z"
                 id="svg_9"
                 fill="#0979ea"
                 stroke="null" />
              <path
                 d="m 3363.8629,2452.1726 c -2.9355,-2.4927 -3.3871,-4.4869 -2.3334,-8.7601 l 0.6022,-2.279 -5.4194,-1.1396 c -3.0107,-0.6409 -8.6559,-2.6351 -12.6451,-4.4156 -6.6237,-2.9913 -7.3011,-3.1337 -7.9785,-1.923 -1.5054,2.4927 -4.9677,5.0567 -7.4516,5.484 -5.4194,0.9971 -10.9893,-3.2761 -10.9893,-8.3328 0,-2.7064 3.0861,-6.4098 6.0215,-7.2645 2.0323,-0.5697 1.957,-1.0683 -1.129,-5.84 -1.4301,-2.2791 -3.5376,-6.4811 -4.6666,-9.4724 -1.0538,-2.92 -2.1076,-5.4839 -2.1828,-5.6264 -0.1506,-0.1424 -1.8818,0.2137 -3.914,0.641 -4.5161,1.1395 -7.2258,0.5698 -10.0108,-2.1366 -1.7311,-1.6381 -2.1828,-2.6352 -2.1828,-5.1991 0,-2.7776 0.3764,-3.4898 2.6345,-5.4127 2.258,-1.8518 3.3118,-2.2079 6.6236,-2.2079 2.1828,0 4.4409,0.3561 5.043,0.7122 0.9032,0.5698 1.3549,-0.2136 2.4086,-4.4156 1.5054,-5.6977 5.7204,-14.3866 8.5054,-17.5915 l 1.957,-2.1366 -2.7097,-1.2108 c -3.8387,-1.7092 -5.6452,-4.202 -5.6452,-7.763 0,-6.8371 7.3764,-9.8996 14.828,-6.1962 0.7527,0.4274 2.1075,1.8518 2.8602,3.205 l 1.4301,2.4927 3.7634,-1.9942 c 3.0861,-1.6381 9.7097,-3.7747 20.5484,-6.8372 0.6774,-0.1424 0.7527,-0.7122 0.2258,-2.0653 -2.4086,-5.9113 0.828,-10.968 7.2258,-11.5378 4.9678,-0.4985 8.2796,1.0684 9.8602,4.5582 0.9785,2.279 0.9785,2.92 0,5.6976 -1.129,3.1337 -1.0537,3.1337 0.7527,3.8459 0.9785,0.3561 2.1828,0.641 2.5592,0.641 1.6559,0 10.4623,3.1337 15.6559,5.5552 3.9892,1.9229 5.6451,2.3502 5.8709,1.7092 0.828,-2.2078 4.2903,-5.1278 6.9248,-5.84 2.7849,-0.7122 5.7956,-0.2849 8.9569,1.3532 1.957,0.997 3.4624,5.1278 2.785,7.9054 -0.5269,2.2079 -4.9678,6.4099 -6.7742,6.4099 -1.6559,0 -1.4301,0.7834 1.5054,5.4127 2.7096,4.202 5.4193,10.3982 6.172,13.9592 0.3763,1.923 0.6022,1.9942 3.1613,1.4956 6.5484,-1.2819 10.4624,0.071 12.6451,4.4157 1.656,3.2049 0.6775,7.1221 -2.258,9.1875 -1.5807,1.1395 -3.3118,1.4956 -7.1505,1.4956 l -5.0431,0.071 -2.258,6.0537 c -2.1075,5.4128 -3.8387,8.9026 -7.2258,14.1017 -0.9785,1.4956 -0.9032,1.7093 0.3763,2.4927 3.5377,2.0654 4.9678,3.561 5.7957,6.0537 1.0538,3.4186 -0.075,6.0538 -3.7634,8.404 -4.3656,2.7776 -9.1828,1.7806 -13.1721,-2.7063 l -1.957,-2.2079 -6.2473,2.4928 c -6.172,2.4927 -8.7311,3.3473 -14.6021,4.7717 l -3.1613,0.7835 0.4516,3.4897 c 0.828,6.5523 -2.258,9.9709 -9.1828,9.9709 -2.7849,0 -3.9139,-0.4273 -6.0967,-2.3503 z m -0.6775,-32.1916 c 0,-7.4069 -0.075,-7.8342 -1.5806,-8.0479 -1.0538,-0.1424 -3.7634,1.4956 -8.0538,4.9142 -3.6129,2.7776 -6.5483,5.4128 -6.5483,5.6976 0,1.4245 11.7419,5.6977 14.6774,5.4128 1.4301,-0.1424 1.5054,-0.641 1.5054,-7.9767 z m 24.3119,5.3415 c 2.5591,-1.1395 4.6666,-2.4927 4.6666,-2.9912 0,-1.3532 -9.0322,-9.6148 -11.4408,-10.4694 -1.1291,-0.4273 -2.1828,-0.4986 -2.4086,-0.2137 -0.1506,0.2849 -0.5269,4.1308 -0.828,8.6177 l -0.6022,8.1191 2.9355,-0.4985 c 1.6559,-0.2849 5.043,-1.4244 7.6774,-2.564 z m 18.5913,-15.7397 c 1.1291,-2.4215 2.2581,-5.6264 2.4086,-7.122 0.3764,-2.4927 0.2258,-2.7776 -1.6559,-3.2049 -2.7849,-0.641 -15.5053,0.2136 -16.4838,1.1395 -0.5269,0.4985 1.4301,2.8488 5.9462,7.122 3.6882,3.5611 6.9247,6.4099 7.2258,6.4099 0.2258,0 1.4301,-1.9942 2.5591,-4.3445 z m -65.0322,1.5669 c 5.043,-3.2049 10.1613,-8.4752 9.1828,-9.4011 -1.3548,-1.282 -6.2473,-2.0654 -13.2473,-2.0654 h -6.6989 l 0.6021,2.279 c 0.9033,4.2021 4.8925,11.2529 6.2474,11.2529 0.301,0 2.0322,-0.9259 3.9139,-2.0654 z m 34.6237,-9.045 c 3.5376,-1.7093 5.1935,-4.3445 5.1935,-8.3328 0,-3.1337 -0.3011,-3.7747 -2.9355,-6.2674 -2.1828,-2.0654 -3.5376,-2.7776 -5.4193,-2.8488 -9.4086,-0.2849 -13.3979,2.4215 -13.4731,9.1162 0,3.1337 0.3763,4.1308 2.3333,6.2674 3.6129,3.9171 9.0322,4.7005 14.301,2.0654 z m -25.8172,-14.1729 c 0.9785,-0.8546 -2.5592,-5.6264 -7.3011,-9.7572 l -4.8925,-4.3444 -1.5054,1.8517 c -1.9569,2.5639 -4.8924,8.9738 -4.9677,10.968 0,1.4244 0.4516,1.5668 5.1183,1.8517 5.8709,0.3561 12.9462,0.071 13.5484,-0.5698 z m 58.6343,-2.2078 c -0.5268,-3.0625 -5.4946,-11.6802 -6.7742,-11.6802 -0.5268,0 -3.6129,2.564 -6.8494,5.6265 -8.2043,7.8342 -7.828,8.3327 6.2473,8.5464 l 7.8279,0.071 -0.4516,-2.5639 z m -46.1397,-9.2587 c 0.9785,-0.8546 1.2043,-2.7063 1.2043,-8.6176 v -7.5494 l -2.7097,0.4273 c -3.7634,0.5698 -12.3441,4.4869 -12.3441,5.6264 0,1.1396 10.5377,11.2529 11.8172,11.2529 0.4516,0 1.4301,-0.4986 2.0323,-1.1396 z m 22.7312,-3.0624 c 6.7741,-4.4869 8.9569,-6.6948 7.6774,-7.6919 -1.7312,-1.3531 -9.9355,-4.3444 -12.6452,-4.6293 l -2.6344,-0.2136 -0.2258,8.0479 c -0.2258,9.6147 0,9.7572 7.8279,4.4869 z"
                 id="svg_8"
                 fill="#0979ea"
                 stroke="null" />
            </g>
            <text
               fill="#0979ea"
               stroke-width="0"
               x="362.50623"
               y="308.50003"
               id="svg_6"
               font-size="30px"
               font-family="'STIX Two Text'"
               text-anchor="start"
               xml:space="preserve"
               font-weight="bold"
               stroke="null">SQK</text>
          </g>
        </g>
        
      </g>
    </g>
  </g>
</svg>
