<svg width="272" height="56" xmlns="http://www.w3.org/2000/svg" xmlns:xlink="http://www.w3.org/1999/xlink" xml:space="preserve" overflow="hidden"><defs><clipPath id="clip0"><rect x="856" y="200" width="272" height="56"/></clipPath><clipPath id="clip1"><rect x="856" y="201" width="272" height="55"/></clipPath><clipPath id="clip2"><rect x="856" y="201" width="272" height="55"/></clipPath><clipPath id="clip3"><rect x="856" y="201" width="272" height="55"/></clipPath></defs><g clip-path="url(#clip0)" transform="translate(-856 -200)"><g clip-path="url(#clip1)"><g clip-path="url(#clip2)"><g clip-path="url(#clip3)"><path d="M470.564 372.403C470.195 372.351 469.524 372.136 468.993 371.89 468.257 371.562 467.91 371.316 467.207 370.64 465.831 369.318 465.192 367.914 464.824 365.465 464.597 363.959 464.651 360.639 464.922 358.887 465.073 357.913 465.68 355.167 465.81 354.839 465.842 354.757 465.766 354.675 465.615 354.634 464.445 354.296 461.424 353.015 460.362 352.411 459.518 351.929 459.323 351.284 459.853 350.7 460.33 350.156 460.676 350.177 462.03 350.823 463.34 351.448 466.069 352.534 466.308 352.534 466.416 352.534 466.578 352.257 466.763 351.745 467.575 349.511 467.835 349.081 468.452 348.988 468.972 348.906 469.557 349.285 469.686 349.767 469.762 350.064 469.686 350.372 469.275 351.571 469.004 352.36 468.777 353.067 468.777 353.128 468.777 353.19 468.961 353.292 469.188 353.343 469.405 353.405 470.076 353.569 470.672 353.722 471.268 353.876 471.885 354.061 472.036 354.132 472.296 354.255 472.372 354.245 472.74 353.999 472.979 353.856 473.347 353.661 473.574 353.569L473.975 353.405 473.26 352.278C472.87 351.663 472.361 350.884 472.123 350.566 471.896 350.238 471.506 349.572 471.278 349.081 471.051 348.578 470.38 347.216 469.806 346.027 468.625 343.629 467.759 341.6 466.979 339.489L466.459 338.065 466.145 338.127C465.972 338.157 465.625 338.27 465.376 338.383 464.932 338.567 464.911 338.598 464.846 339.09 464.748 339.909 464.369 340.596 463.752 341.139 462.712 342.031 461.348 342.246 460.005 341.733 459.626 341.59 459.301 341.467 459.29 341.467 459.149 341.467 457.731 343.209 457.449 343.742 457.124 344.357 457.081 344.521 457.081 345.238 457.081 346.17 457.244 346.693 457.796 347.543 458.337 348.373 458.391 348.824 457.991 349.244 457.785 349.449 457.536 349.593 457.287 349.624 456.929 349.685 456.832 349.644 456.399 349.265 455.814 348.753 455.088 347.492 454.861 346.58 454.33 344.428 455.121 342.41 457.287 340.391L458.056 339.684 458.056 338.762C458.056 338.055 458.11 337.747 458.272 337.43 458.619 336.753 459.074 336.303 459.788 335.944 460.969 335.339 462.301 335.411 463.438 336.139L464.055 336.528 464.922 336.231C465.387 336.067 465.788 335.923 465.81 335.903 465.831 335.882 465.799 335.708 465.745 335.514 465.441 334.499 464.976 331.999 464.813 330.605 464.608 328.751 464.651 325.83 464.911 324.498 465.311 322.49 466.037 321.106 467.315 319.897 468.701 318.586 469.968 318.104 472.004 318.104 473.856 318.104 475.253 318.452 477.386 319.436 478.827 320.112 480.473 321.086 481.902 322.141 482.898 322.869 485.422 325.062 486.97 326.547L487.891 327.429 488.714 327.429 489.537 327.429 490.739 325.922C492.439 323.771 492.428 323.771 493.446 323.678 493.901 323.637 494.973 323.637 495.818 323.668 497.421 323.74 497.897 323.853 498.081 324.221 498.125 324.324 498.2 326.65 498.233 329.396 498.265 332.511 498.33 334.427 498.395 334.489 498.46 334.54 499.132 334.735 499.911 334.909 501.157 335.186 501.33 335.206 501.438 335.063 501.59 334.868 502.207 331.948 502.337 330.759 502.63 328.187 502.575 325.881 502.175 324.252 501.785 322.654 500.724 321.24 499.478 320.655 498.926 320.399 498.601 320.328 497.886 320.287 495.861 320.164 493.641 320.932 490.555 322.807 489.385 323.514 488.93 323.607 488.432 323.197 488.064 322.9 487.945 322.213 488.205 321.854 488.616 321.26 491.887 319.446 493.695 318.811 499.283 316.864 503.474 319.026 504.59 324.467 504.871 325.83 504.871 329.601 504.59 331.476 504.416 332.603 503.875 335.216 503.702 335.729 503.658 335.852 503.81 335.954 504.265 336.108 508.315 337.532 511.553 339.418 513.091 341.252 514.206 342.574 514.802 343.998 514.802 345.33 514.802 346.129 514.466 347.369 514.022 348.158 513.524 349.05 511.369 351.089 510.113 351.868 508.976 352.565 506.312 353.794 504.752 354.337 504.146 354.552 503.658 354.778 503.68 354.829 503.713 354.891 503.875 355.587 504.059 356.376 505.369 362.002 505.055 366.951 503.214 369.605 502.976 369.954 502.456 370.527 502.056 370.876 499.088 373.509 494.421 372.935 488.757 369.247 487.815 368.642 486.158 367.392 485.292 366.654L484.75 366.183 483.992 366.818C481.686 368.755 479.79 369.974 477.386 371.112 474.841 372.31 472.751 372.7 470.564 372.403ZM472.935 370.261C475.534 369.913 478.881 368.14 482.465 365.209L482.877 364.861 481.057 364.799C480.061 364.758 478.036 364.728 476.563 364.728L473.878 364.728 473.239 364.369C472.47 363.949 472.026 363.488 471.592 362.678L471.268 362.074 471.268 359.071 471.268 356.069 469.697 355.721C468.831 355.536 468.105 355.393 468.084 355.413 468.051 355.434 467.954 355.751 467.856 356.12 467.521 357.36 467.152 359.645 467.022 361.367 466.6 367.054 468.289 370.199 471.831 370.353 471.993 370.353 472.48 370.312 472.935 370.261ZM498.374 370.261C500.594 369.923 501.969 368.171 502.402 365.137 502.489 364.543 502.565 363.672 502.565 363.191 502.565 360.629 501.742 355.403 501.33 355.403 501.265 355.403 500.713 355.516 500.096 355.659 499.478 355.803 498.807 355.915 498.601 355.915L498.233 355.915 498.233 358.989 498.233 362.074 497.908 362.678C497.475 363.488 497.031 363.949 496.262 364.369L495.623 364.728 492.84 364.728C491.313 364.728 489.288 364.758 488.356 364.799L486.656 364.861 487.165 365.291C490.761 368.345 494.594 370.24 497.421 370.353 497.605 370.353 498.027 370.322 498.374 370.261ZM480.841 362.494C480.873 362.443 480.505 361.961 480.018 361.408 479.379 360.67 479.097 360.434 478.967 360.475 478.87 360.516 478.534 360.598 478.22 360.66 476.747 360.957 474.798 359.83 474.397 358.446 474.224 357.852 474.332 356.469 474.571 355.997 474.679 355.782 474.744 355.587 474.711 355.546 474.603 355.454 473.986 355.803 473.845 356.048 473.693 356.305 473.574 360.721 473.704 361.51 473.802 362.145 474.062 362.391 474.69 362.484 475.469 362.586 480.776 362.586 480.841 362.494ZM486.028 361.838C487.035 360.834 488.476 359.133 488.605 358.795 488.67 358.651 488.974 358.272 489.288 357.965 489.613 357.657 490.176 357.012 490.533 356.53L491.205 355.659 488.844 355.598C485.617 355.505 481.48 355.495 480.992 355.567L480.603 355.628 480.819 356.11C481.112 356.755 481.187 357.78 480.971 358.415L480.808 358.918 481.924 360.157C482.541 360.844 483.299 361.664 483.624 361.992 484.187 362.545 484.241 362.576 484.75 362.576 485.281 362.576 485.303 362.566 486.028 361.838ZM495.536 362.166 495.85 361.817 495.85 359.297C495.85 357.913 495.796 356.602 495.742 356.376 495.623 355.895 495.341 355.639 494.8 355.546 494.193 355.434 494.421 355.198 491.822 358.538 491.129 359.44 490.122 360.67 489.58 361.285 489.049 361.899 488.638 362.453 488.67 362.504 488.703 362.555 490.143 362.576 491.973 362.555L495.222 362.525ZM478.274 358.313C478.61 358.118 478.881 357.585 478.805 357.299 478.772 357.165 478.61 356.919 478.458 356.745 478.22 356.479 478.101 356.428 477.689 356.428 476.455 356.428 476.13 357.965 477.278 358.436 477.624 358.579 477.884 358.549 478.274 358.313ZM497.616 354.378C497.691 354.112 498.352 353.835 499.63 353.517 500.182 353.384 500.659 353.251 500.691 353.21 500.734 353.169 500.54 352.482 500.258 351.663 499.976 350.853 499.749 350.044 499.749 349.88 499.749 349.47 500.377 348.947 500.864 348.947 501.59 348.947 501.926 349.419 502.608 351.386 502.889 352.175 503.063 352.534 503.182 352.534 503.756 352.534 507.611 350.802 508.997 349.921 510.059 349.244 511.586 347.789 512.008 347.052 512.614 345.965 512.614 344.787 512.008 343.639 511.607 342.881 510.264 341.539 509.095 340.76 507.546 339.715 503.366 337.901 503.106 338.147 503.009 338.239 502.435 339.684 501.742 341.529 501.655 341.764 501.395 342.389 501.168 342.912L500.745 343.875 501.059 344.203C501.752 344.951 501.882 346.457 501.341 347.461 500.799 348.476 500.009 349.029 498.796 349.255 498.2 349.367 498.092 349.429 497.94 349.706 497.843 349.88 497.572 350.3 497.323 350.638 497.085 350.976 496.587 351.734 496.208 352.319L495.536 353.384 496.045 353.61C496.327 353.743 496.749 354.009 496.987 354.204 497.496 354.634 497.54 354.655 497.616 354.378ZM492.948 351.489 492.981 349.716 493.901 349.654C494.984 349.583 495.222 349.49 495.58 348.947L495.85 348.537 495.482 348.005C494.518 346.57 494.551 345.576 495.601 343.906 495.872 343.465 495.883 343.414 495.742 343.158 495.504 342.748 495.049 342.574 493.966 342.502L492.981 342.44 492.948 339.561 492.926 336.682 494.02 336.62C495.006 336.569 495.461 336.456 495.287 336.292 495.201 336.21 492.385 335.872 490.544 335.708 488.465 335.534 481.036 335.534 478.956 335.708 477.115 335.872 474.3 336.21 474.213 336.292 474.04 336.456 474.495 336.569 475.48 336.62L476.574 336.682 476.552 339.561 476.52 342.44 475.534 342.502C474.311 342.584 473.921 342.758 473.769 343.291 473.704 343.506 473.65 344.715 473.65 346.058 473.65 348.25 473.672 348.476 473.867 348.845 474.192 349.439 474.495 349.583 475.578 349.654L476.52 349.716 476.552 351.355C476.563 352.257 476.596 353.056 476.628 353.128 476.661 353.22 478.404 353.251 484.794 353.251L492.926 353.251ZM499.002 346.806C499.251 346.57 499.316 346.416 499.316 346.078 499.316 345.504 499.186 345.31 498.666 345.115 498.287 344.971 498.179 344.971 497.865 345.094 496.717 345.545 497.009 347.103 498.233 347.103 498.59 347.103 498.753 347.041 499.002 346.806ZM471.376 343.178C471.376 342.318 472.34 341.17 473.509 340.647L474.192 340.34 474.192 339.571C474.192 338.823 474.181 338.793 473.899 338.69 473.065 338.413 472.145 337.717 471.744 337.061 471.506 336.682 471.43 336.682 469.968 337.051 469.221 337.235 468.82 337.379 468.798 337.481 468.744 337.737 470.141 341.395 470.91 343.025 471.203 343.65 471.376 343.711 471.376 343.178ZM498.699 342.615C498.796 342.512 499.013 342.113 499.186 341.713 499.749 340.432 500.756 337.583 500.691 337.45 500.648 337.327 498.525 336.753 498.125 336.753 498.038 336.753 497.843 336.938 497.691 337.163 497.356 337.686 496.446 338.393 495.829 338.608L495.363 338.782 495.331 339.561 495.298 340.34 495.991 340.647C496.793 341.006 497.496 341.621 497.865 342.318 498.146 342.84 498.395 342.932 498.699 342.615ZM462.258 339.459C462.42 339.274 462.496 339.069 462.496 338.772 462.496 338.229 462.279 337.932 461.792 337.778 461.175 337.583 460.644 337.84 460.362 338.475 459.929 339.459 461.478 340.278 462.258 339.459ZM469.113 335.022C469.557 334.909 470.195 334.776 470.542 334.704 470.878 334.643 471.17 334.581 471.181 334.571 471.192 334.561 471.224 332.265 471.268 329.478 471.3 326.691 471.365 324.324 471.419 324.221 471.473 324.119 471.668 323.965 471.852 323.863 472.145 323.709 472.513 323.689 474.484 323.689L476.78 323.699 477.126 323.996C477.31 324.17 478.025 325.01 478.718 325.881L479.974 327.449 482.108 327.418C483.288 327.398 484.285 327.336 484.339 327.295 484.447 327.193 482.888 325.748 481.339 324.518 479.985 323.443 477.841 322.09 476.574 321.485 474.029 320.276 471.636 319.948 470.13 320.604 467.77 321.629 466.719 324.498 467.033 329.13 467.228 331.917 467.867 335.216 468.214 335.216 468.257 335.216 468.669 335.124 469.113 335.022ZM495.85 331.886 495.85 329.581 484.75 329.581 473.65 329.581 473.65 331.835C473.65 334.007 473.661 334.089 473.867 334.089 473.986 334.089 474.581 334.017 475.188 333.936 477.939 333.556 479.552 333.454 483.288 333.403 486.732 333.351 491.389 333.485 491.984 333.638 492.147 333.69 492.168 333.618 492.168 333.126 492.168 332.644 492.212 332.542 492.461 332.357 493.013 331.937 493.609 331.958 494.074 332.398 494.356 332.665 494.421 333.228 494.215 333.597 494.15 333.71 494.118 333.823 494.15 333.843 494.183 333.874 494.562 333.956 494.995 334.028 495.439 334.11 495.807 334.171 495.829 334.181 495.84 334.192 495.85 333.157 495.85 331.886ZM476.845 327.306C476.877 327.275 476.682 326.937 476.401 326.568L475.881 325.892 474.766 325.892 473.65 325.892 473.65 326.67 473.65 327.449 475.21 327.408C476.076 327.388 476.801 327.347 476.845 327.306ZM495.85 326.67 495.85 325.902 494.757 325.871 493.663 325.84 493.121 326.558 492.591 327.275 492.948 327.336C493.143 327.377 493.879 327.408 494.583 327.418L495.85 327.429 495.85 326.67Z" fill="#0979EA" fill-rule="nonzero" fill-opacity="1" transform="matrix(1 0 0 -1.01103 407.139 577.612)"/><path d="M484.588 359.983C484.436 359.912 484.23 359.686 484.122 359.471 483.949 359.153 483.938 359.041 484.046 358.733 484.328 357.924 485.216 357.719 485.844 358.313 486.45 358.887 486.331 359.686 485.617 359.973 485.162 360.147 484.945 360.147 484.588 359.983Z" fill="#0979EA" fill-rule="nonzero" fill-opacity="1" transform="matrix(1 0 0 -1.01103 407.139 577.612)"/><path d="M483.981 352.81C483.559 352.452 483.494 352.165 483.646 351.55L483.732 351.222 482.953 351.058C482.519 350.966 481.707 350.679 481.133 350.423 480.18 349.992 480.083 349.972 479.985 350.146 479.769 350.505 479.271 350.874 478.913 350.935 478.133 351.079 477.332 350.464 477.332 349.736 477.332 349.347 477.776 348.814 478.198 348.691 478.491 348.609 478.48 348.537 478.036 347.851 477.83 347.523 477.527 346.918 477.365 346.488 477.213 346.068 477.061 345.699 477.051 345.679 477.029 345.658 476.78 345.709 476.487 345.771 475.838 345.935 475.448 345.853 475.047 345.463 474.798 345.228 474.733 345.084 474.733 344.715 474.733 344.316 474.787 344.213 475.112 343.937 475.437 343.67 475.589 343.619 476.065 343.619 476.379 343.619 476.704 343.67 476.791 343.721 476.921 343.803 476.986 343.691 477.137 343.086 477.354 342.266 477.96 341.016 478.361 340.555L478.642 340.248 478.253 340.073C477.7 339.827 477.44 339.469 477.44 338.957 477.44 337.973 478.502 337.532 479.574 338.065 479.682 338.127 479.877 338.331 479.985 338.526L480.191 338.885 480.733 338.598C481.177 338.362 482.13 338.055 483.689 337.614 483.786 337.594 483.797 337.512 483.721 337.317 483.375 336.467 483.841 335.739 484.761 335.657 485.476 335.585 485.952 335.811 486.18 336.313 486.32 336.641 486.32 336.733 486.18 337.133 486.017 337.583 486.028 337.583 486.288 337.686 486.429 337.737 486.602 337.778 486.656 337.778 486.894 337.778 488.161 338.229 488.909 338.577 489.483 338.854 489.721 338.916 489.753 338.823 489.873 338.506 490.371 338.086 490.75 337.983 491.15 337.881 491.584 337.942 492.038 338.178 492.32 338.321 492.537 338.916 492.439 339.315 492.363 339.633 491.724 340.237 491.464 340.237 491.226 340.237 491.259 340.35 491.681 341.016 492.071 341.621 492.461 342.512 492.569 343.025 492.623 343.301 492.656 343.311 493.024 343.24 493.966 343.055 494.529 343.25 494.843 343.875 495.082 344.336 494.941 344.9 494.518 345.197 494.291 345.361 494.042 345.412 493.49 345.412L492.764 345.422 492.439 346.293C492.136 347.072 491.887 347.574 491.4 348.322 491.259 348.537 491.27 348.568 491.454 348.681 491.963 348.978 492.168 349.193 492.288 349.552 492.439 350.044 492.277 350.423 491.746 350.761 491.118 351.161 490.425 351.017 489.851 350.372L489.569 350.054 488.67 350.413C487.782 350.771 487.414 350.894 486.57 351.099L486.115 351.212 486.18 351.714C486.299 352.657 485.855 353.149 484.859 353.149 484.458 353.149 484.295 353.087 483.981 352.81ZM483.884 348.179C483.884 347.113 483.873 347.052 483.656 347.021 483.505 347 483.115 347.236 482.498 347.728 481.978 348.128 481.556 348.507 481.556 348.548 481.556 348.753 483.245 349.367 483.667 349.326 483.873 349.306 483.884 349.234 483.884 348.179ZM487.382 348.947C487.75 348.783 488.053 348.589 488.053 348.517 488.053 348.322 486.754 347.134 486.407 347.011 486.245 346.949 486.093 346.939 486.061 346.98 486.039 347.021 485.985 347.574 485.941 348.22L485.855 349.388 486.277 349.316C486.515 349.275 487.003 349.111 487.382 348.947ZM490.057 346.683C490.219 346.334 490.382 345.873 490.403 345.658 490.457 345.299 490.436 345.258 490.165 345.197 489.764 345.105 487.934 345.228 487.793 345.361 487.717 345.433 487.999 345.771 488.649 346.386 489.179 346.898 489.645 347.308 489.688 347.308 489.721 347.308 489.894 347.021 490.057 346.683ZM480.7 346.908C481.426 346.447 482.162 345.689 482.021 345.556 481.826 345.371 481.122 345.258 480.115 345.258L479.151 345.258 479.238 345.586C479.368 346.191 479.942 347.205 480.137 347.205 480.18 347.205 480.429 347.072 480.7 346.908ZM485.682 345.607C486.191 345.361 486.429 344.982 486.429 344.408 486.429 343.957 486.385 343.865 486.006 343.506 485.692 343.209 485.497 343.107 485.227 343.096 483.873 343.055 483.299 343.445 483.288 344.408 483.288 344.859 483.342 345.002 483.624 345.31 484.144 345.873 484.923 345.986 485.682 345.607ZM481.967 343.568C482.108 343.445 481.599 342.758 480.917 342.164L480.213 341.539 479.996 341.805C479.715 342.174 479.292 343.096 479.281 343.383 479.281 343.588 479.346 343.609 480.018 343.65 480.862 343.701 481.88 343.66 481.967 343.568ZM490.403 343.25C490.327 342.809 489.613 341.569 489.429 341.569 489.353 341.569 488.909 341.938 488.443 342.379 487.263 343.506 487.317 343.578 489.342 343.609L490.468 343.619 490.403 343.25ZM483.765 341.918C483.906 341.795 483.938 341.529 483.938 340.678L483.938 339.592 483.548 339.653C483.007 339.735 481.772 340.299 481.772 340.463 481.772 340.627 483.288 342.082 483.472 342.082 483.537 342.082 483.678 342.01 483.765 341.918ZM487.035 341.477C488.01 340.832 488.324 340.514 488.14 340.371 487.891 340.176 486.71 339.746 486.32 339.705L485.941 339.674 485.909 340.832C485.876 342.215 485.909 342.236 487.035 341.477Z" fill="#0979EA" fill-rule="nonzero" fill-opacity="1" transform="matrix(1 0 0 -1.01103 407.139 577.612)"/><text fill="#0979EA" fill-opacity="1" font-family="STIX Two Text,STIX Two Text_MSFontService,sans-serif" font-style="normal" font-variant="normal" font-weight="700" font-stretch="normal" font-size="30" text-anchor="start" direction="ltr" writing-mode="lr-tb" unicode-bidi="normal" text-decoration="none" transform="matrix(1.43877 0 0 1.45464 928.701 241)">SQK</text><text fill="#0979EA" fill-opacity="1" font-family="STIX Two Text,STIX Two Text_MSFontService,sans-serif" font-style="normal" font-variant="normal" font-weight="400" font-stretch="normal" font-size="10" text-anchor="start" direction="ltr" writing-mode="lr-tb" unicode-bidi="normal" text-decoration="none" transform="matrix(1.43877 0 0 1.45464 1017.9 219)">   supercomputer</text><text fill="#0979EA" fill-opacity="1" font-family="STIX Two Text,STIX Two Text_MSFontService,sans-serif" font-style="normal" font-variant="normal" font-weight="400" font-stretch="normal" font-size="10" text-anchor="start" direction="ltr" writing-mode="lr-tb" unicode-bidi="normal" text-decoration="none" transform="matrix(1.43877 0 0 1.45464 1016.47 232)">   quantum</text><text fill="#0979EA" fill-opacity="1" font-family="STIX Two Text,STIX Two Text_MSFontService,sans-serif" font-style="normal" font-variant="normal" font-weight="400" font-stretch="normal" font-size="10" text-anchor="start" direction="ltr" writing-mode="lr-tb" unicode-bidi="normal" text-decoration="none" transform="matrix(1.43877 0 0 1.45464 1017.9 246)">   kokkos</text></g></g></g></g></svg>